# xmcd
#
# Track frame offsets:
#	150
#	9013
#	24832
#	45520
#	62284
#	75103
#	83585
#	97557
#	110001
#	130909
#	146617
#	162992
#	174404
#	189705
#	207123
#	219425
#	235945
#	254449
#	275018
#	299858
#	319605
#	336629
#
# Disc length: 4762 seconds
#
# Revision: 0
# Processed by: cddbd v1.4PL0 Copyright (c) Steve Scherf et al.
# Submitted via: dBpowerAMP V4.0
#
DISCID=28129816
DTITLE=Cuby and Blizzards - Singles A's and B's  CD1
DYEAR=2002
DGENRE=Blues
TTITLE0=Stumble And Fall
TTITLE1=L.S.D. (Got A Million Dollars)
TTITLE2=Back Home
TTITLE3=You Don't Know
TTITLE4=Just For Fun
TTITLE5=Another Day, Another Road
TTITLE6=Distant Smile
TTITLE7=The Sunshine Of Your Shadow
TTITLE8=Another Land
TTITLE9=Window Of My Eyes
TTITLE10=Nostalgic Toilet
TTITLE11=Appleknockers Flophouse
TTITLE12=Thursday Night
TTITLE13=Backstreet
TTITLE14=Pawn Broker
TTITLE15=Sometimes
TTITLE16=Master Of Planning (Red White and Blue)
TTITLE17=Kid Blue
TTITLE18=Mr. Cool
TTITLE19=Devil Daisy
TTITLE20=Though On Me, Though On You
TTITLE21=Brother Booze
EXTD=
EXTT0=
EXTT1=
EXTT2=
EXTT3=
EXTT4=
EXTT5=
EXTT6=
EXTT7=
EXTT8=
EXTT9=
EXTT10=
EXTT11=
EXTT12=
EXTT13=
EXTT14=
EXTT15=
EXTT16=
EXTT17=
EXTT18=
EXTT19=
EXTT20=
EXTT21=
PLAYORDER=
